<?xml version="1.0" encoding="utf-8" standalone="no"?>
<!DOCTYPE svg PUBLIC "-//W3C//DTD SVG 1.1//EN"
  "http://www.w3.org/Graphics/SVG/1.1/DTD/svg11.dtd">
<!-- Created with matplotlib (https://matplotlib.org/) -->
<svg height="288pt" version="1.1" viewBox="0 0 432 288" width="432pt" xmlns="http://www.w3.org/2000/svg" xmlns:xlink="http://www.w3.org/1999/xlink">
 <defs>
  <style type="text/css">
*{stroke-linecap:butt;stroke-linejoin:round;}
  </style>
 </defs>
 <g id="figure_1">
  <g id="patch_1">
   <path d="M 0 288 
L 432 288 
L 432 0 
L 0 0 
z
" style="fill:#ffffff;"/>
  </g>
  <g id="axes_1">
   <g id="patch_2">
    <path d="M 54 252 
L 388.8 252 
L 388.8 34.56 
L 54 34.56 
z
" style="fill:#ffffff;"/>
   </g>
   <g id="matplotlib.axis_1">
    <g id="xtick_1">
     <g id="line2d_1">
      <path clip-path="url(#p51695c5bb9)" d="M 54 252 
L 54 34.56 
" style="fill:none;stroke:#b0b0b0;stroke-linecap:square;stroke-width:0.8;"/>
     </g>
     <g id="line2d_2">
      <defs>
       <path d="M 0 0 
L 0 3.5 
" id="mb1e258b3b8" style="stroke:#000000;stroke-width:0.8;"/>
      </defs>
      <g>
       <use style="stroke:#000000;stroke-width:0.8;" x="54" xlink:href="#mb1e258b3b8" y="252"/>
      </g>
     </g>
     <g id="text_1">
      <!-- 0 -->
      <defs>
       <path d="M 31.78125 66.40625 
Q 24.171875 66.40625 20.328125 58.90625 
Q 16.5 51.421875 16.5 36.375 
Q 16.5 21.390625 20.328125 13.890625 
Q 24.171875 6.390625 31.78125 6.390625 
Q 39.453125 6.390625 43.28125 13.890625 
Q 47.125 21.390625 47.125 36.375 
Q 47.125 51.421875 43.28125 58.90625 
Q 39.453125 66.40625 31.78125 66.40625 
z
M 31.78125 74.21875 
Q 44.046875 74.21875 50.515625 64.515625 
Q 56.984375 54.828125 56.984375 36.375 
Q 56.984375 17.96875 50.515625 8.265625 
Q 44.046875 -1.421875 31.78125 -1.421875 
Q 19.53125 -1.421875 13.0625 8.265625 
Q 6.59375 17.96875 6.59375 36.375 
Q 6.59375 54.828125 13.0625 64.515625 
Q 19.53125 74.21875 31.78125 74.21875 
z
" id="DejaVuSans-48"/>
      </defs>
      <g transform="translate(50.81875 266.598437)scale(0.1 -0.1)">
       <use xlink:href="#DejaVuSans-48"/>
      </g>
     </g>
    </g>
    <g id="xtick_2">
     <g id="line2d_3">
      <path clip-path="url(#p51695c5bb9)" d="M 120.96 252 
L 120.96 34.56 
" style="fill:none;stroke:#b0b0b0;stroke-linecap:square;stroke-width:0.8;"/>
     </g>
     <g id="line2d_4">
      <g>
       <use style="stroke:#000000;stroke-width:0.8;" x="120.96" xlink:href="#mb1e258b3b8" y="252"/>
      </g>
     </g>
     <g id="text_2">
      <!-- 2 -->
      <defs>
       <path d="M 19.1875 8.296875 
L 53.609375 8.296875 
L 53.609375 0 
L 7.328125 0 
L 7.328125 8.296875 
Q 12.9375 14.109375 22.625 23.890625 
Q 32.328125 33.6875 34.8125 36.53125 
Q 39.546875 41.84375 41.421875 45.53125 
Q 43.3125 49.21875 43.3125 52.78125 
Q 43.3125 58.59375 39.234375 62.25 
Q 35.15625 65.921875 28.609375 65.921875 
Q 23.96875 65.921875 18.8125 64.3125 
Q 13.671875 62.703125 7.8125 59.421875 
L 7.8125 69.390625 
Q 13.765625 71.78125 18.9375 73 
Q 24.125 74.21875 28.421875 74.21875 
Q 39.75 74.21875 46.484375 68.546875 
Q 53.21875 62.890625 53.21875 53.421875 
Q 53.21875 48.921875 51.53125 44.890625 
Q 49.859375 40.875 45.40625 35.40625 
Q 44.1875 33.984375 37.640625 27.21875 
Q 31.109375 20.453125 19.1875 8.296875 
z
" id="DejaVuSans-50"/>
      </defs>
      <g transform="translate(117.77875 266.598437)scale(0.1 -0.1)">
       <use xlink:href="#DejaVuSans-50"/>
      </g>
     </g>
    </g>
    <g id="xtick_3">
     <g id="line2d_5">
      <path clip-path="url(#p51695c5bb9)" d="M 187.92 252 
L 187.92 34.56 
" style="fill:none;stroke:#b0b0b0;stroke-linecap:square;stroke-width:0.8;"/>
     </g>
     <g id="line2d_6">
      <g>
       <use style="stroke:#000000;stroke-width:0.8;" x="187.92" xlink:href="#mb1e258b3b8" y="252"/>
      </g>
     </g>
     <g id="text_3">
      <!-- 4 -->
      <defs>
       <path d="M 37.796875 64.3125 
L 12.890625 25.390625 
L 37.796875 25.390625 
z
M 35.203125 72.90625 
L 47.609375 72.90625 
L 47.609375 25.390625 
L 58.015625 25.390625 
L 58.015625 17.1875 
L 47.609375 17.1875 
L 47.609375 0 
L 37.796875 0 
L 37.796875 17.1875 
L 4.890625 17.1875 
L 4.890625 26.703125 
z
" id="DejaVuSans-52"/>
      </defs>
      <g transform="translate(184.73875 266.598437)scale(0.1 -0.1)">
       <use xlink:href="#DejaVuSans-52"/>
      </g>
     </g>
    </g>
    <g id="xtick_4">
     <g id="line2d_7">
      <path clip-path="url(#p51695c5bb9)" d="M 254.88 252 
L 254.88 34.56 
" style="fill:none;stroke:#b0b0b0;stroke-linecap:square;stroke-width:0.8;"/>
     </g>
     <g id="line2d_8">
      <g>
       <use style="stroke:#000000;stroke-width:0.8;" x="254.88" xlink:href="#mb1e258b3b8" y="252"/>
      </g>
     </g>
     <g id="text_4">
      <!-- 6 -->
      <defs>
       <path d="M 33.015625 40.375 
Q 26.375 40.375 22.484375 35.828125 
Q 18.609375 31.296875 18.609375 23.390625 
Q 18.609375 15.53125 22.484375 10.953125 
Q 26.375 6.390625 33.015625 6.390625 
Q 39.65625 6.390625 43.53125 10.953125 
Q 47.40625 15.53125 47.40625 23.390625 
Q 47.40625 31.296875 43.53125 35.828125 
Q 39.65625 40.375 33.015625 40.375 
z
M 52.59375 71.296875 
L 52.59375 62.3125 
Q 48.875 64.0625 45.09375 64.984375 
Q 41.3125 65.921875 37.59375 65.921875 
Q 27.828125 65.921875 22.671875 59.328125 
Q 17.53125 52.734375 16.796875 39.40625 
Q 19.671875 43.65625 24.015625 45.921875 
Q 28.375 48.1875 33.59375 48.1875 
Q 44.578125 48.1875 50.953125 41.515625 
Q 57.328125 34.859375 57.328125 23.390625 
Q 57.328125 12.15625 50.6875 5.359375 
Q 44.046875 -1.421875 33.015625 -1.421875 
Q 20.359375 -1.421875 13.671875 8.265625 
Q 6.984375 17.96875 6.984375 36.375 
Q 6.984375 53.65625 15.1875 63.9375 
Q 23.390625 74.21875 37.203125 74.21875 
Q 40.921875 74.21875 44.703125 73.484375 
Q 48.484375 72.75 52.59375 71.296875 
z
" id="DejaVuSans-54"/>
      </defs>
      <g transform="translate(251.69875 266.598437)scale(0.1 -0.1)">
       <use xlink:href="#DejaVuSans-54"/>
      </g>
     </g>
    </g>
    <g id="xtick_5">
     <g id="line2d_9">
      <path clip-path="url(#p51695c5bb9)" d="M 321.84 252 
L 321.84 34.56 
" style="fill:none;stroke:#b0b0b0;stroke-linecap:square;stroke-width:0.8;"/>
     </g>
     <g id="line2d_10">
      <g>
       <use style="stroke:#000000;stroke-width:0.8;" x="321.84" xlink:href="#mb1e258b3b8" y="252"/>
      </g>
     </g>
     <g id="text_5">
      <!-- 8 -->
      <defs>
       <path d="M 31.78125 34.625 
Q 24.75 34.625 20.71875 30.859375 
Q 16.703125 27.09375 16.703125 20.515625 
Q 16.703125 13.921875 20.71875 10.15625 
Q 24.75 6.390625 31.78125 6.390625 
Q 38.8125 6.390625 42.859375 10.171875 
Q 46.921875 13.96875 46.921875 20.515625 
Q 46.921875 27.09375 42.890625 30.859375 
Q 38.875 34.625 31.78125 34.625 
z
M 21.921875 38.8125 
Q 15.578125 40.375 12.03125 44.71875 
Q 8.5 49.078125 8.5 55.328125 
Q 8.5 64.0625 14.71875 69.140625 
Q 20.953125 74.21875 31.78125 74.21875 
Q 42.671875 74.21875 48.875 69.140625 
Q 55.078125 64.0625 55.078125 55.328125 
Q 55.078125 49.078125 51.53125 44.71875 
Q 48 40.375 41.703125 38.8125 
Q 48.828125 37.15625 52.796875 32.3125 
Q 56.78125 27.484375 56.78125 20.515625 
Q 56.78125 9.90625 50.3125 4.234375 
Q 43.84375 -1.421875 31.78125 -1.421875 
Q 19.734375 -1.421875 13.25 4.234375 
Q 6.78125 9.90625 6.78125 20.515625 
Q 6.78125 27.484375 10.78125 32.3125 
Q 14.796875 37.15625 21.921875 38.8125 
z
M 18.3125 54.390625 
Q 18.3125 48.734375 21.84375 45.5625 
Q 25.390625 42.390625 31.78125 42.390625 
Q 38.140625 42.390625 41.71875 45.5625 
Q 45.3125 48.734375 45.3125 54.390625 
Q 45.3125 60.0625 41.71875 63.234375 
Q 38.140625 66.40625 31.78125 66.40625 
Q 25.390625 66.40625 21.84375 63.234375 
Q 18.3125 60.0625 18.3125 54.390625 
z
" id="DejaVuSans-56"/>
      </defs>
      <g transform="translate(318.65875 266.598437)scale(0.1 -0.1)">
       <use xlink:href="#DejaVuSans-56"/>
      </g>
     </g>
    </g>
    <g id="xtick_6">
     <g id="line2d_11">
      <path clip-path="url(#p51695c5bb9)" d="M 388.8 252 
L 388.8 34.56 
" style="fill:none;stroke:#b0b0b0;stroke-linecap:square;stroke-width:0.8;"/>
     </g>
     <g id="line2d_12">
      <g>
       <use style="stroke:#000000;stroke-width:0.8;" x="388.8" xlink:href="#mb1e258b3b8" y="252"/>
      </g>
     </g>
     <g id="text_6">
      <!-- 10 -->
      <defs>
       <path d="M 12.40625 8.296875 
L 28.515625 8.296875 
L 28.515625 63.921875 
L 10.984375 60.40625 
L 10.984375 69.390625 
L 28.421875 72.90625 
L 38.28125 72.90625 
L 38.28125 8.296875 
L 54.390625 8.296875 
L 54.390625 0 
L 12.40625 0 
z
" id="DejaVuSans-49"/>
      </defs>
      <g transform="translate(382.4375 266.598437)scale(0.1 -0.1)">
       <use xlink:href="#DejaVuSans-49"/>
       <use x="63.623047" xlink:href="#DejaVuSans-48"/>
      </g>
     </g>
    </g>
    <g id="text_7">
     <!-- temps [s] -->
     <defs>
      <path d="M 18.3125 70.21875 
L 18.3125 54.6875 
L 36.8125 54.6875 
L 36.8125 47.703125 
L 18.3125 47.703125 
L 18.3125 18.015625 
Q 18.3125 11.328125 20.140625 9.421875 
Q 21.96875 7.515625 27.59375 7.515625 
L 36.8125 7.515625 
L 36.8125 0 
L 27.59375 0 
Q 17.1875 0 13.234375 3.875 
Q 9.28125 7.765625 9.28125 18.015625 
L 9.28125 47.703125 
L 2.6875 47.703125 
L 2.6875 54.6875 
L 9.28125 54.6875 
L 9.28125 70.21875 
z
" id="DejaVuSans-116"/>
      <path d="M 56.203125 29.59375 
L 56.203125 25.203125 
L 14.890625 25.203125 
Q 15.484375 15.921875 20.484375 11.0625 
Q 25.484375 6.203125 34.421875 6.203125 
Q 39.59375 6.203125 44.453125 7.46875 
Q 49.3125 8.734375 54.109375 11.28125 
L 54.109375 2.78125 
Q 49.265625 0.734375 44.1875 -0.34375 
Q 39.109375 -1.421875 33.890625 -1.421875 
Q 20.796875 -1.421875 13.15625 6.1875 
Q 5.515625 13.8125 5.515625 26.8125 
Q 5.515625 40.234375 12.765625 48.109375 
Q 20.015625 56 32.328125 56 
Q 43.359375 56 49.78125 48.890625 
Q 56.203125 41.796875 56.203125 29.59375 
z
M 47.21875 32.234375 
Q 47.125 39.59375 43.09375 43.984375 
Q 39.0625 48.390625 32.421875 48.390625 
Q 24.90625 48.390625 20.390625 44.140625 
Q 15.875 39.890625 15.1875 32.171875 
z
" id="DejaVuSans-101"/>
      <path d="M 52 44.1875 
Q 55.375 50.25 60.0625 53.125 
Q 64.75 56 71.09375 56 
Q 79.640625 56 84.28125 50.015625 
Q 88.921875 44.046875 88.921875 33.015625 
L 88.921875 0 
L 79.890625 0 
L 79.890625 32.71875 
Q 79.890625 40.578125 77.09375 44.375 
Q 74.3125 48.1875 68.609375 48.1875 
Q 61.625 48.1875 57.5625 43.546875 
Q 53.515625 38.921875 53.515625 30.90625 
L 53.515625 0 
L 44.484375 0 
L 44.484375 32.71875 
Q 44.484375 40.625 41.703125 44.40625 
Q 38.921875 48.1875 33.109375 48.1875 
Q 26.21875 48.1875 22.15625 43.53125 
Q 18.109375 38.875 18.109375 30.90625 
L 18.109375 0 
L 9.078125 0 
L 9.078125 54.6875 
L 18.109375 54.6875 
L 18.109375 46.1875 
Q 21.1875 51.21875 25.484375 53.609375 
Q 29.78125 56 35.6875 56 
Q 41.65625 56 45.828125 52.96875 
Q 50 49.953125 52 44.1875 
z
" id="DejaVuSans-109"/>
      <path d="M 18.109375 8.203125 
L 18.109375 -20.796875 
L 9.078125 -20.796875 
L 9.078125 54.6875 
L 18.109375 54.6875 
L 18.109375 46.390625 
Q 20.953125 51.265625 25.265625 53.625 
Q 29.59375 56 35.59375 56 
Q 45.5625 56 51.78125 48.09375 
Q 58.015625 40.1875 58.015625 27.296875 
Q 58.015625 14.40625 51.78125 6.484375 
Q 45.5625 -1.421875 35.59375 -1.421875 
Q 29.59375 -1.421875 25.265625 0.953125 
Q 20.953125 3.328125 18.109375 8.203125 
z
M 48.6875 27.296875 
Q 48.6875 37.203125 44.609375 42.84375 
Q 40.53125 48.484375 33.40625 48.484375 
Q 26.265625 48.484375 22.1875 42.84375 
Q 18.109375 37.203125 18.109375 27.296875 
Q 18.109375 17.390625 22.1875 11.75 
Q 26.265625 6.109375 33.40625 6.109375 
Q 40.53125 6.109375 44.609375 11.75 
Q 48.6875 17.390625 48.6875 27.296875 
z
" id="DejaVuSans-112"/>
      <path d="M 44.28125 53.078125 
L 44.28125 44.578125 
Q 40.484375 46.53125 36.375 47.5 
Q 32.28125 48.484375 27.875 48.484375 
Q 21.1875 48.484375 17.84375 46.4375 
Q 14.5 44.390625 14.5 40.28125 
Q 14.5 37.15625 16.890625 35.375 
Q 19.28125 33.59375 26.515625 31.984375 
L 29.59375 31.296875 
Q 39.15625 29.25 43.1875 25.515625 
Q 47.21875 21.78125 47.21875 15.09375 
Q 47.21875 7.46875 41.1875 3.015625 
Q 35.15625 -1.421875 24.609375 -1.421875 
Q 20.21875 -1.421875 15.453125 -0.5625 
Q 10.6875 0.296875 5.421875 2 
L 5.421875 11.28125 
Q 10.40625 8.6875 15.234375 7.390625 
Q 20.0625 6.109375 24.8125 6.109375 
Q 31.15625 6.109375 34.5625 8.28125 
Q 37.984375 10.453125 37.984375 14.40625 
Q 37.984375 18.0625 35.515625 20.015625 
Q 33.0625 21.96875 24.703125 23.78125 
L 21.578125 24.515625 
Q 13.234375 26.265625 9.515625 29.90625 
Q 5.8125 33.546875 5.8125 39.890625 
Q 5.8125 47.609375 11.28125 51.796875 
Q 16.75 56 26.8125 56 
Q 31.78125 56 36.171875 55.265625 
Q 40.578125 54.546875 44.28125 53.078125 
z
" id="DejaVuSans-115"/>
      <path id="DejaVuSans-32"/>
      <path d="M 8.59375 75.984375 
L 29.296875 75.984375 
L 29.296875 69 
L 17.578125 69 
L 17.578125 -6.203125 
L 29.296875 -6.203125 
L 29.296875 -13.1875 
L 8.59375 -13.1875 
z
" id="DejaVuSans-91"/>
      <path d="M 30.421875 75.984375 
L 30.421875 -13.1875 
L 9.71875 -13.1875 
L 9.71875 -6.203125 
L 21.390625 -6.203125 
L 21.390625 69 
L 9.71875 69 
L 9.71875 75.984375 
z
" id="DejaVuSans-93"/>
     </defs>
     <g transform="translate(197.61875 280.276563)scale(0.1 -0.1)">
      <use xlink:href="#DejaVuSans-116"/>
      <use x="39.208984" xlink:href="#DejaVuSans-101"/>
      <use x="100.732422" xlink:href="#DejaVuSans-109"/>
      <use x="198.144531" xlink:href="#DejaVuSans-112"/>
      <use x="261.621094" xlink:href="#DejaVuSans-115"/>
      <use x="313.720703" xlink:href="#DejaVuSans-32"/>
      <use x="345.507812" xlink:href="#DejaVuSans-91"/>
      <use x="384.521484" xlink:href="#DejaVuSans-115"/>
      <use x="436.621094" xlink:href="#DejaVuSans-93"/>
     </g>
    </g>
   </g>
   <g id="matplotlib.axis_2">
    <g id="ytick_1">
     <g id="line2d_13">
      <path clip-path="url(#p51695c5bb9)" d="M 54 219.9437 
L 388.8 219.9437 
" style="fill:none;stroke:#b0b0b0;stroke-linecap:square;stroke-width:0.8;"/>
     </g>
     <g id="line2d_14">
      <defs>
       <path d="M 0 0 
L -3.5 0 
" id="m3c79141c08" style="stroke:#000000;stroke-width:0.8;"/>
      </defs>
      <g>
       <use style="stroke:#000000;stroke-width:0.8;" x="54" xlink:href="#m3c79141c08" y="219.9437"/>
      </g>
     </g>
     <g id="text_8">
      <!-- −400 -->
      <defs>
       <path d="M 10.59375 35.5 
L 73.1875 35.5 
L 73.1875 27.203125 
L 10.59375 27.203125 
z
" id="DejaVuSans-8722"/>
      </defs>
      <g transform="translate(19.532812 223.742918)scale(0.1 -0.1)">
       <use xlink:href="#DejaVuSans-8722"/>
       <use x="83.789062" xlink:href="#DejaVuSans-52"/>
       <use x="147.412109" xlink:href="#DejaVuSans-48"/>
       <use x="211.035156" xlink:href="#DejaVuSans-48"/>
      </g>
     </g>
    </g>
    <g id="ytick_2">
     <g id="line2d_15">
      <path clip-path="url(#p51695c5bb9)" d="M 54 177.483907 
L 388.8 177.483907 
" style="fill:none;stroke:#b0b0b0;stroke-linecap:square;stroke-width:0.8;"/>
     </g>
     <g id="line2d_16">
      <g>
       <use style="stroke:#000000;stroke-width:0.8;" x="54" xlink:href="#m3c79141c08" y="177.483907"/>
      </g>
     </g>
     <g id="text_9">
      <!-- −200 -->
      <g transform="translate(19.532812 181.283126)scale(0.1 -0.1)">
       <use xlink:href="#DejaVuSans-8722"/>
       <use x="83.789062" xlink:href="#DejaVuSans-50"/>
       <use x="147.412109" xlink:href="#DejaVuSans-48"/>
       <use x="211.035156" xlink:href="#DejaVuSans-48"/>
      </g>
     </g>
    </g>
    <g id="ytick_3">
     <g id="line2d_17">
      <path clip-path="url(#p51695c5bb9)" d="M 54 135.024115 
L 388.8 135.024115 
" style="fill:none;stroke:#b0b0b0;stroke-linecap:square;stroke-width:0.8;"/>
     </g>
     <g id="line2d_18">
      <g>
       <use style="stroke:#000000;stroke-width:0.8;" x="54" xlink:href="#m3c79141c08" y="135.024115"/>
      </g>
     </g>
     <g id="text_10">
      <!-- 0 -->
      <g transform="translate(40.6375 138.823334)scale(0.1 -0.1)">
       <use xlink:href="#DejaVuSans-48"/>
      </g>
     </g>
    </g>
    <g id="ytick_4">
     <g id="line2d_19">
      <path clip-path="url(#p51695c5bb9)" d="M 54 92.564323 
L 388.8 92.564323 
" style="fill:none;stroke:#b0b0b0;stroke-linecap:square;stroke-width:0.8;"/>
     </g>
     <g id="line2d_20">
      <g>
       <use style="stroke:#000000;stroke-width:0.8;" x="54" xlink:href="#m3c79141c08" y="92.564323"/>
      </g>
     </g>
     <g id="text_11">
      <!-- 200 -->
      <g transform="translate(27.9125 96.363542)scale(0.1 -0.1)">
       <use xlink:href="#DejaVuSans-50"/>
       <use x="63.623047" xlink:href="#DejaVuSans-48"/>
       <use x="127.246094" xlink:href="#DejaVuSans-48"/>
      </g>
     </g>
    </g>
    <g id="ytick_5">
     <g id="line2d_21">
      <path clip-path="url(#p51695c5bb9)" d="M 54 50.104531 
L 388.8 50.104531 
" style="fill:none;stroke:#b0b0b0;stroke-linecap:square;stroke-width:0.8;"/>
     </g>
     <g id="line2d_22">
      <g>
       <use style="stroke:#000000;stroke-width:0.8;" x="54" xlink:href="#m3c79141c08" y="50.104531"/>
      </g>
     </g>
     <g id="text_12">
      <!-- 400 -->
      <g transform="translate(27.9125 53.903749)scale(0.1 -0.1)">
       <use xlink:href="#DejaVuSans-52"/>
       <use x="63.623047" xlink:href="#DejaVuSans-48"/>
       <use x="127.246094" xlink:href="#DejaVuSans-48"/>
      </g>
     </g>
    </g>
    <g id="text_13">
     <!-- mouvement latéral de la caisse [mm] -->
     <defs>
      <path d="M 30.609375 48.390625 
Q 23.390625 48.390625 19.1875 42.75 
Q 14.984375 37.109375 14.984375 27.296875 
Q 14.984375 17.484375 19.15625 11.84375 
Q 23.34375 6.203125 30.609375 6.203125 
Q 37.796875 6.203125 41.984375 11.859375 
Q 46.1875 17.53125 46.1875 27.296875 
Q 46.1875 37.015625 41.984375 42.703125 
Q 37.796875 48.390625 30.609375 48.390625 
z
M 30.609375 56 
Q 42.328125 56 49.015625 48.375 
Q 55.71875 40.765625 55.71875 27.296875 
Q 55.71875 13.875 49.015625 6.21875 
Q 42.328125 -1.421875 30.609375 -1.421875 
Q 18.84375 -1.421875 12.171875 6.21875 
Q 5.515625 13.875 5.515625 27.296875 
Q 5.515625 40.765625 12.171875 48.375 
Q 18.84375 56 30.609375 56 
z
" id="DejaVuSans-111"/>
      <path d="M 8.5 21.578125 
L 8.5 54.6875 
L 17.484375 54.6875 
L 17.484375 21.921875 
Q 17.484375 14.15625 20.5 10.265625 
Q 23.53125 6.390625 29.59375 6.390625 
Q 36.859375 6.390625 41.078125 11.03125 
Q 45.3125 15.671875 45.3125 23.6875 
L 45.3125 54.6875 
L 54.296875 54.6875 
L 54.296875 0 
L 45.3125 0 
L 45.3125 8.40625 
Q 42.046875 3.421875 37.71875 1 
Q 33.40625 -1.421875 27.6875 -1.421875 
Q 18.265625 -1.421875 13.375 4.4375 
Q 8.5 10.296875 8.5 21.578125 
z
M 31.109375 56 
z
" id="DejaVuSans-117"/>
      <path d="M 2.984375 54.6875 
L 12.5 54.6875 
L 29.59375 8.796875 
L 46.6875 54.6875 
L 56.203125 54.6875 
L 35.6875 0 
L 23.484375 0 
z
" id="DejaVuSans-118"/>
      <path d="M 54.890625 33.015625 
L 54.890625 0 
L 45.90625 0 
L 45.90625 32.71875 
Q 45.90625 40.484375 42.875 44.328125 
Q 39.84375 48.1875 33.796875 48.1875 
Q 26.515625 48.1875 22.3125 43.546875 
Q 18.109375 38.921875 18.109375 30.90625 
L 18.109375 0 
L 9.078125 0 
L 9.078125 54.6875 
L 18.109375 54.6875 
L 18.109375 46.1875 
Q 21.34375 51.125 25.703125 53.5625 
Q 30.078125 56 35.796875 56 
Q 45.21875 56 50.046875 50.171875 
Q 54.890625 44.34375 54.890625 33.015625 
z
" id="DejaVuSans-110"/>
      <path d="M 9.421875 75.984375 
L 18.40625 75.984375 
L 18.40625 0 
L 9.421875 0 
z
" id="DejaVuSans-108"/>
      <path d="M 34.28125 27.484375 
Q 23.390625 27.484375 19.1875 25 
Q 14.984375 22.515625 14.984375 16.5 
Q 14.984375 11.71875 18.140625 8.90625 
Q 21.296875 6.109375 26.703125 6.109375 
Q 34.1875 6.109375 38.703125 11.40625 
Q 43.21875 16.703125 43.21875 25.484375 
L 43.21875 27.484375 
z
M 52.203125 31.203125 
L 52.203125 0 
L 43.21875 0 
L 43.21875 8.296875 
Q 40.140625 3.328125 35.546875 0.953125 
Q 30.953125 -1.421875 24.3125 -1.421875 
Q 15.921875 -1.421875 10.953125 3.296875 
Q 6 8.015625 6 15.921875 
Q 6 25.140625 12.171875 29.828125 
Q 18.359375 34.515625 30.609375 34.515625 
L 43.21875 34.515625 
L 43.21875 35.40625 
Q 43.21875 41.609375 39.140625 45 
Q 35.0625 48.390625 27.6875 48.390625 
Q 23 48.390625 18.546875 47.265625 
Q 14.109375 46.140625 10.015625 43.890625 
L 10.015625 52.203125 
Q 14.9375 54.109375 19.578125 55.046875 
Q 24.21875 56 28.609375 56 
Q 40.484375 56 46.34375 49.84375 
Q 52.203125 43.703125 52.203125 31.203125 
z
" id="DejaVuSans-97"/>
      <path d="M 56.203125 29.59375 
L 56.203125 25.203125 
L 14.890625 25.203125 
Q 15.484375 15.921875 20.484375 11.0625 
Q 25.484375 6.203125 34.421875 6.203125 
Q 39.59375 6.203125 44.453125 7.46875 
Q 49.3125 8.734375 54.109375 11.28125 
L 54.109375 2.78125 
Q 49.265625 0.734375 44.1875 -0.34375 
Q 39.109375 -1.421875 33.890625 -1.421875 
Q 20.796875 -1.421875 13.15625 6.1875 
Q 5.515625 13.8125 5.515625 26.8125 
Q 5.515625 40.234375 12.765625 48.109375 
Q 20.015625 56 32.328125 56 
Q 43.359375 56 49.78125 48.890625 
Q 56.203125 41.796875 56.203125 29.59375 
z
M 47.21875 32.234375 
Q 47.125 39.59375 43.09375 43.984375 
Q 39.0625 48.390625 32.421875 48.390625 
Q 24.90625 48.390625 20.390625 44.140625 
Q 15.875 39.890625 15.1875 32.171875 
z
M 38.578125 79.984375 
L 48.296875 79.984375 
L 32.375 61.625 
L 24.90625 61.625 
z
" id="DejaVuSans-233"/>
      <path d="M 41.109375 46.296875 
Q 39.59375 47.171875 37.8125 47.578125 
Q 36.03125 48 33.890625 48 
Q 26.265625 48 22.1875 43.046875 
Q 18.109375 38.09375 18.109375 28.8125 
L 18.109375 0 
L 9.078125 0 
L 9.078125 54.6875 
L 18.109375 54.6875 
L 18.109375 46.1875 
Q 20.953125 51.171875 25.484375 53.578125 
Q 30.03125 56 36.53125 56 
Q 37.453125 56 38.578125 55.875 
Q 39.703125 55.765625 41.0625 55.515625 
z
" id="DejaVuSans-114"/>
      <path d="M 45.40625 46.390625 
L 45.40625 75.984375 
L 54.390625 75.984375 
L 54.390625 0 
L 45.40625 0 
L 45.40625 8.203125 
Q 42.578125 3.328125 38.25 0.953125 
Q 33.9375 -1.421875 27.875 -1.421875 
Q 17.96875 -1.421875 11.734375 6.484375 
Q 5.515625 14.40625 5.515625 27.296875 
Q 5.515625 40.1875 11.734375 48.09375 
Q 17.96875 56 27.875 56 
Q 33.9375 56 38.25 53.625 
Q 42.578125 51.265625 45.40625 46.390625 
z
M 14.796875 27.296875 
Q 14.796875 17.390625 18.875 11.75 
Q 22.953125 6.109375 30.078125 6.109375 
Q 37.203125 6.109375 41.296875 11.75 
Q 45.40625 17.390625 45.40625 27.296875 
Q 45.40625 37.203125 41.296875 42.84375 
Q 37.203125 48.484375 30.078125 48.484375 
Q 22.953125 48.484375 18.875 42.84375 
Q 14.796875 37.203125 14.796875 27.296875 
z
" id="DejaVuSans-100"/>
      <path d="M 48.78125 52.59375 
L 48.78125 44.1875 
Q 44.96875 46.296875 41.140625 47.34375 
Q 37.3125 48.390625 33.40625 48.390625 
Q 24.65625 48.390625 19.8125 42.84375 
Q 14.984375 37.3125 14.984375 27.296875 
Q 14.984375 17.28125 19.8125 11.734375 
Q 24.65625 6.203125 33.40625 6.203125 
Q 37.3125 6.203125 41.140625 7.25 
Q 44.96875 8.296875 48.78125 10.40625 
L 48.78125 2.09375 
Q 45.015625 0.34375 40.984375 -0.53125 
Q 36.96875 -1.421875 32.421875 -1.421875 
Q 20.0625 -1.421875 12.78125 6.34375 
Q 5.515625 14.109375 5.515625 27.296875 
Q 5.515625 40.671875 12.859375 48.328125 
Q 20.21875 56 33.015625 56 
Q 37.15625 56 41.109375 55.140625 
Q 45.0625 54.296875 48.78125 52.59375 
z
" id="DejaVuSans-99"/>
      <path d="M 9.421875 54.6875 
L 18.40625 54.6875 
L 18.40625 0 
L 9.421875 0 
z
M 9.421875 75.984375 
L 18.40625 75.984375 
L 18.40625 64.59375 
L 9.421875 64.59375 
z
" id="DejaVuSans-105"/>
     </defs>
     <g transform="translate(13.453125 237.268281)rotate(-90)scale(0.1 -0.1)">
      <use xlink:href="#DejaVuSans-109"/>
      <use x="97.412109" xlink:href="#DejaVuSans-111"/>
      <use x="158.59375" xlink:href="#DejaVuSans-117"/>
      <use x="221.972656" xlink:href="#DejaVuSans-118"/>
      <use x="281.152344" xlink:href="#DejaVuSans-101"/>
      <use x="342.675781" xlink:href="#DejaVuSans-109"/>
      <use x="440.087891" xlink:href="#DejaVuSans-101"/>
      <use x="501.611328" xlink:href="#DejaVuSans-110"/>
      <use x="564.990234" xlink:href="#DejaVuSans-116"/>
      <use x="604.199219" xlink:href="#DejaVuSans-32"/>
      <use x="635.986328" xlink:href="#DejaVuSans-108"/>
      <use x="663.769531" xlink:href="#DejaVuSans-97"/>
      <use x="725.048828" xlink:href="#DejaVuSans-116"/>
      <use x="764.257812" xlink:href="#DejaVuSans-233"/>
      <use x="825.78125" xlink:href="#DejaVuSans-114"/>
      <use x="866.894531" xlink:href="#DejaVuSans-97"/>
      <use x="928.173828" xlink:href="#DejaVuSans-108"/>
      <use x="955.957031" xlink:href="#DejaVuSans-32"/>
      <use x="987.744141" xlink:href="#DejaVuSans-100"/>
      <use x="1051.220703" xlink:href="#DejaVuSans-101"/>
      <use x="1112.744141" xlink:href="#DejaVuSans-32"/>
      <use x="1144.53125" xlink:href="#DejaVuSans-108"/>
      <use x="1172.314453" xlink:href="#DejaVuSans-97"/>
      <use x="1233.59375" xlink:href="#DejaVuSans-32"/>
      <use x="1265.380859" xlink:href="#DejaVuSans-99"/>
      <use x="1320.361328" xlink:href="#DejaVuSans-97"/>
      <use x="1381.640625" xlink:href="#DejaVuSans-105"/>
      <use x="1409.423828" xlink:href="#DejaVuSans-115"/>
      <use x="1461.523438" xlink:href="#DejaVuSans-115"/>
      <use x="1513.623047" xlink:href="#DejaVuSans-101"/>
      <use x="1575.146484" xlink:href="#DejaVuSans-32"/>
      <use x="1606.933594" xlink:href="#DejaVuSans-91"/>
      <use x="1645.947266" xlink:href="#DejaVuSans-109"/>
      <use x="1743.359375" xlink:href="#DejaVuSans-109"/>
      <use x="1840.771484" xlink:href="#DejaVuSans-93"/>
     </g>
    </g>
   </g>
   <g id="line2d_23">
    <path clip-path="url(#p51695c5bb9)" d="M 54 135.024115 
L 81.38664 135.079624 
L 81.55404 135.597884 
L 81.82188 136.314054 
L 81.9558 136.146947 
L 82.22364 135.84593 
L 82.458 136.109291 
L 82.9602 136.827261 
L 83.76372 138.794853 
L 84.03156 139.136823 
L 84.23244 139.060696 
L 84.90204 138.608309 
L 85.1364 138.6743 
L 85.9734 139.220274 
L 86.20776 139.002062 
L 86.60952 138.22191 
L 87.17868 137.220666 
L 87.51348 137.039223 
L 88.35048 136.847765 
L 88.51788 136.844142 
L 88.68528 137.250132 
L 89.52228 140.852366 
L 90.25884 144.607073 
L 91.1628 149.287266 
L 91.56456 150.401629 
L 91.665 150.404981 
L 91.79892 150.015113 
L 93.5064 142.018896 
L 93.90816 141.228242 
L 94.24296 141.012842 
L 94.54428 141.088672 
L 94.97952 141.477582 
L 96.31872 142.877553 
L 96.72048 142.948784 
L 96.92136 142.717949 
L 97.22268 141.910902 
L 98.42796 138.306161 
L 98.59536 138.283014 
L 98.76276 138.531739 
L 98.99712 139.402653 
L 99.39888 141.981114 
L 100.16892 146.868717 
L 100.7046 148.763192 
L 101.30724 150.88136 
L 102.51252 155.759985 
L 102.78036 156.011458 
L 103.01472 155.974627 
L 103.34952 155.668945 
L 103.78476 154.957368 
L 104.18652 153.839782 
L 104.58828 152.07688 
L 104.92308 149.503449 
L 105.32484 144.541943 
L 105.894 134.160242 
L 107.96976 92.446672 
L 108.43848 88.49254 
L 108.84024 86.74192 
L 109.14156 86.193182 
L 109.30896 86.178231 
L 109.47636 86.418365 
L 109.71072 87.252562 
L 110.04552 89.472532 
L 110.5812 94.891736 
L 111.2508 103.899676 
L 111.98736 117.354292 
L 112.79088 131.119882 
L 113.12568 133.851151 
L 113.32656 134.275074 
L 113.46048 134.21401 
L 114.02964 133.554897 
L 114.06312 133.584976 
L 114.23052 133.935756 
L 114.53184 135.235332 
L 115.03404 137.259764 
L 115.16796 137.278152 
L 115.30188 136.954258 
L 115.53624 135.545686 
L 115.90452 131.56158 
L 117.74592 109.107988 
L 118.64988 99.685281 
L 119.25252 95.790371 
L 120.05604 92.033057 
L 120.32388 91.485712 
L 120.4578 91.497921 
L 120.6252 91.846111 
L 120.85956 93.024559 
L 121.19436 96.138148 
L 121.6296 102.5553 
L 122.16528 114.231088 
L 122.9688 137.954842 
L 123.87276 162.469623 
L 124.67628 177.676208 
L 126.3168 203.170486 
L 126.95292 211.014564 
L 127.38816 214.012792 
L 127.68948 214.919362 
L 127.89036 215.050224 
L 128.05776 214.894431 
L 128.29212 214.281503 
L 128.6604 212.545959 
L 129.19608 208.940067 
L 130.5018 199.119013 
L 131.1714 196.951206 
L 131.64012 193.250624 
L 131.97492 191.497557 
L 132.14232 191.383896 
L 132.27624 191.633209 
L 132.54408 192.772515 
L 133.04628 194.836146 
L 133.21368 194.916488 
L 133.38108 194.618421 
L 133.6824 193.375451 
L 134.1846 191.360685 
L 134.38548 191.197584 
L 134.55288 191.422195 
L 134.82072 192.320624 
L 135.65772 195.446443 
L 136.66212 197.696866 
L 137.66652 201.286465 
L 137.8674 201.341507 
L 138.06828 201.101082 
L 138.3696 200.294957 
L 138.8718 198.146866 
L 139.24008 196.875311 
L 139.64184 195.913197 
L 139.8762 194.496622 
L 140.17752 190.910071 
L 140.64624 181.733021 
L 141.885 155.844661 
L 142.2198 153.157108 
L 142.42068 152.711286 
L 142.52112 152.792694 
L 142.68852 153.348488 
L 142.95636 155.207501 
L 143.3916 160.161345 
L 144.16164 168.824704 
L 144.52992 170.857686 
L 144.7308 171.155367 
L 144.86472 171.040535 
L 145.0656 170.479172 
L 145.63476 167.865718 
L 146.03652 166.561369 
L 146.27088 166.3211 
L 146.43828 166.393155 
L 146.67264 166.777291 
L 147.44268 168.262595 
L 147.5766 168.131378 
L 147.77748 167.518785 
L 148.04532 165.879449 
L 148.48056 161.537137 
L 149.71932 148.194675 
L 151.86204 131.985617 
L 153.40212 124.12323 
L 154.64088 115.16588 
L 154.87524 114.72481 
L 155.00916 114.763116 
L 155.17656 115.104447 
L 155.4444 116.269154 
L 155.91312 119.554935 
L 156.68316 124.811853 
L 156.951 125.450869 
L 157.1184 125.41936 
L 157.31928 125.001934 
L 157.6206 123.662122 
L 158.35716 118.777284 
L 160.03116 106.934409 
L 160.56684 100.20065 
L 161.33688 86.995288 
L 162.10692 74.97737 
L 162.57564 70.845858 
L 162.91044 69.432026 
L 163.17828 69.041988 
L 163.41264 69.025039 
L 163.71396 69.25561 
L 164.18268 69.920223 
L 164.55096 70.815656 
L 164.91924 72.377414 
L 165.28752 75.068569 
L 165.72276 80.156173 
L 166.35888 90.755192 
L 167.46372 108.897576 
L 168.23376 117.58518 
L 169.03728 124.279226 
L 169.53948 126.898975 
L 169.8408 127.574769 
L 170.0082 127.616355 
L 170.1756 127.413085 
L 170.40996 126.721525 
L 170.74476 124.905621 
L 171.18 121.135825 
L 171.95004 112.099459 
L 173.08836 99.188622 
L 173.65752 95.016819 
L 174.05928 93.361281 
L 174.3606 92.88218 
L 174.528 92.914362 
L 174.72888 93.251597 
L 174.99672 94.225561 
L 175.365 96.591824 
L 175.83372 101.307545 
L 176.43636 109.910001 
L 178.64604 144.4258 
L 179.08128 147.329253 
L 179.41608 148.303141 
L 179.61696 148.364823 
L 179.78436 148.105869 
L 180.01872 147.256834 
L 180.35352 145.05073 
L 180.78876 140.444014 
L 181.35792 131.716208 
L 183.46716 96.24748 
L 184.0698 91.032076 
L 184.60548 88.189611 
L 185.00724 87.055909 
L 185.17464 86.980075 
L 185.30856 87.231611 
L 185.5764 88.428962 
L 185.9112 90.947809 
L 186.34644 96.177635 
L 186.81516 104.491799 
L 187.68564 125.004797 
L 188.45568 140.904999 
L 188.9244 146.350502 
L 189.2592 148.081783 
L 189.46008 148.300091 
L 189.594 148.115834 
L 189.82836 147.279 
L 190.16316 145.168138 
L 190.5984 140.704779 
L 191.13408 132.710009 
L 192.03804 118.504583 
L 192.33936 116.758758 
L 192.54024 116.498888 
L 192.67416 116.606315 
L 192.90852 117.161834 
L 193.6116 119.04344 
L 194.01336 119.71164 
L 194.24772 120.705421 
L 194.51556 122.908604 
L 194.91732 128.472274 
L 195.41952 138.895911 
L 196.18956 160.300308 
L 197.09352 183.959118 
L 197.72964 194.709866 
L 198.66708 206.63289 
L 199.06884 209.705426 
L 199.3032 210.245192 
L 199.40364 210.130093 
L 199.57104 209.451564 
L 199.83888 207.129656 
L 200.24064 201.268054 
L 201.88116 174.382493 
L 202.4838 169.311839 
L 203.11992 165.706169 
L 203.45472 164.772689 
L 203.62212 164.734988 
L 203.78952 165.066642 
L 204.02388 166.247914 
L 204.3252 169.107226 
L 204.76044 175.808477 
L 205.43004 190.271653 
L 207.13752 228.251141 
L 207.77364 237.637147 
L 208.20888 241.222238 
L 208.47672 242.073462 
L 208.61064 242.090623 
L 208.77804 241.72916 
L 209.04588 240.359702 
L 209.48112 236.698 
L 210.15072 228.691302 
L 211.05468 215.048273 
L 212.42736 194.280099 
L 212.99652 189.022624 
L 213.80004 183.875553 
L 214.26876 181.929081 
L 214.46964 181.724765 
L 214.60356 181.939191 
L 214.80444 182.903424 
L 215.10576 185.700505 
L 216.34452 198.901407 
L 218.3868 210.75939 
L 218.7216 211.389819 
L 218.889 211.403107 
L 219.0564 211.170294 
L 219.29076 210.332085 
L 219.59208 208.167435 
L 219.96036 203.567393 
L 220.42908 194.585755 
L 221.29956 172.517087 
L 222.67224 139.373126 
L 223.47576 124.452264 
L 223.97796 118.579254 
L 224.34624 116.370062 
L 224.61408 115.768027 
L 224.81496 115.727253 
L 225.0828 115.978574 
L 225.585 116.464882 
L 225.81936 116.424938 
L 226.0872 116.10603 
L 226.48896 115.188869 
L 227.4264 112.265829 
L 228.63168 108.055817 
L 229.16736 105.316491 
L 229.6026 101.906799 
L 230.1048 95.92632 
L 230.9418 85.950197 
L 232.24752 73.790804 
L 232.88364 67.045346 
L 233.15148 65.925689 
L 233.2854 65.841392 
L 233.31888 65.865368 
L 233.48628 66.222568 
L 233.7876 67.61623 
L 234.75852 73.849533 
L 235.32768 78.62442 
L 236.19816 88.419032 
L 237.77172 105.382509 
L 238.20696 108.329627 
L 238.50828 109.124115 
L 238.67568 109.121886 
L 238.87656 108.773633 
L 239.24484 107.529655 
L 239.91444 105.373531 
L 240.24924 104.924434 
L 240.58404 104.822602 
L 241.58844 104.716695 
L 241.9902 104.596589 
L 242.25804 104.782111 
L 242.59284 105.306375 
L 243.09504 106.609784 
L 243.76464 108.971132 
L 244.36728 111.927262 
L 245.0034 116.206268 
L 245.70648 122.554738 
L 246.61044 133.086678 
L 248.5188 155.666791 
L 249.15492 160.696716 
L 249.59016 162.65264 
L 249.82452 163.004687 
L 249.95844 162.92107 
L 250.12584 162.489026 
L 250.39368 161.008529 
L 250.82892 156.936818 
L 251.59896 149.759713 
L 252.23508 146.287999 
L 252.80424 142.761847 
L 254.10996 133.933305 
L 254.47824 133.0212 
L 254.84652 132.678888 
L 255.44916 132.494526 
L 255.91788 132.525216 
L 256.35312 132.798516 
L 257.12316 133.320546 
L 257.45796 133.254159 
L 257.79276 132.948543 
L 258.19452 132.251492 
L 258.59628 131.048168 
L 258.99804 129.028358 
L 259.46676 125.287814 
L 260.10288 118.106118 
L 262.2456 92.588314 
L 262.71432 89.425762 
L 262.94868 88.912129 
L 263.04912 88.96941 
L 263.21652 89.452423 
L 263.48436 91.187822 
L 263.88612 95.608487 
L 265.761 118.831967 
L 266.89932 128.498801 
L 267.30108 130.32082 
L 267.50196 130.553075 
L 267.63588 130.411967 
L 267.83676 129.734546 
L 268.13808 127.67796 
L 268.53984 123.190379 
L 269.17596 113.162172 
L 270.98388 82.930867 
L 271.31868 81.152455 
L 271.55304 80.814572 
L 271.68696 80.905839 
L 271.88784 81.378213 
L 272.22264 82.876835 
L 272.65788 85.962369 
L 273.05964 90.633976 
L 273.49488 98.718955 
L 274.09752 114.729128 
L 275.90544 165.568056 
L 276.40764 173.487605 
L 276.8094 176.930026 
L 277.11072 178.03189 
L 277.3116 178.211997 
L 277.479 178.104665 
L 277.71336 177.603074 
L 278.04816 176.245509 
L 278.4834 173.425876 
L 278.9856 168.505428 
L 279.85608 157.084024 
L 280.52568 149.613368 
L 280.96092 146.826052 
L 281.26224 146.022557 
L 281.42964 145.987365 
L 281.59704 146.254452 
L 281.8314 147.161806 
L 282.13272 149.301375 
L 282.53448 153.953012 
L 283.03668 162.618618 
L 283.73976 179.03366 
L 286.04988 236.317878 
L 286.45164 240.664194 
L 286.71948 241.684672 
L 286.81992 241.679 
L 286.95384 241.350637 
L 287.1882 239.916852 
L 287.523 236.074125 
L 287.99172 227.605202 
L 288.66132 210.744422 
L 289.56528 181.796558 
L 290.93796 137.372037 
L 291.47364 126.872228 
L 291.8754 122.725237 
L 292.14324 121.729235 
L 292.27716 121.740261 
L 292.44456 122.205192 
L 292.7124 123.923624 
L 293.08068 128.002815 
L 293.64984 137.145281 
L 295.5582 170.020063 
L 295.92648 172.469011 
L 296.12736 172.787397 
L 296.26128 172.58901 
L 296.46216 171.703011 
L 296.76348 169.106392 
L 297.19872 163.027546 
L 297.76788 151.595523 
L 298.83924 123.625547 
L 300.078 95.301742 
L 300.915 78.737864 
L 301.28328 75.073163 
L 301.51764 74.29439 
L 301.61808 74.336163 
L 301.752 74.732385 
L 301.98636 76.293233 
L 302.35464 80.632927 
L 302.89032 89.980915 
L 303.86124 111.629733 
L 306.40572 169.149199 
L 306.97488 176.112063 
L 307.4436 179.40559 
L 307.74492 180.312783 
L 307.91232 180.355519 
L 308.07972 180.043093 
L 308.31408 178.990532 
L 308.64888 176.271117 
L 309.15108 169.950683 
L 310.15548 153.545325 
L 310.959 141.889978 
L 311.32728 139.013145 
L 311.56164 138.461821 
L 311.66208 138.550049 
L 311.82948 139.114803 
L 312.09732 141.001461 
L 312.53256 146.088989 
L 313.26912 157.849564 
L 314.27352 177.539079 
L 315.37836 198.943286 
L 315.78012 202.829275 
L 316.01448 203.62752 
L 316.1484 203.625622 
L 316.3158 203.185231 
L 316.55016 201.793413 
L 316.91844 197.977417 
L 317.52108 188.826165 
L 318.29112 173.811607 
L 319.06116 153.928734 
L 320.53428 114.505255 
L 321.10344 105.860954 
L 321.63912 100.826475 
L 322.07436 98.414474 
L 322.37568 97.734075 
L 322.54308 97.760034 
L 322.71048 98.088519 
L 322.97832 99.232901 
L 323.3466 101.920241 
L 323.94924 108.262467 
L 325.25496 122.471741 
L 325.62324 124.392227 
L 325.8576 124.786691 
L 325.99152 124.708068 
L 326.1924 124.17712 
L 326.46024 122.71973 
L 326.82852 119.37903 
L 327.33072 112.447464 
L 327.89988 101.370211 
L 328.73688 79.83829 
L 329.67432 57.382035 
L 330.21 49.315845 
L 330.64524 45.679033 
L 330.94656 44.575239 
L 331.14744 44.460583 
L 331.31484 44.745474 
L 331.5492 45.731309 
L 331.884 48.350444 
L 332.28576 53.466956 
L 332.78796 63.102098 
L 333.45756 80.773103 
L 335.03112 123.786786 
L 335.63376 133.064887 
L 336.53772 143.410149 
L 336.93948 145.929559 
L 337.14036 146.266949 
L 337.27428 146.116582 
L 337.47516 145.349987 
L 337.77648 143.152476 
L 338.31216 137.265945 
L 340.35444 113.177798 
L 340.68924 111.781955 
L 340.89012 111.566064 
L 341.02404 111.682717 
L 341.22492 112.25161 
L 341.49276 113.771014 
L 341.82756 117.007385 
L 342.22932 123.13164 
L 342.73152 134.510823 
L 343.53504 158.897078 
L 344.74032 194.602641 
L 345.34296 206.169125 
L 345.7782 211.021019 
L 346.07952 212.5751 
L 346.2804 212.776921 
L 346.41432 212.536365 
L 346.6152 211.605012 
L 346.91652 208.904466 
L 347.31828 202.825773 
L 347.82048 191.292209 
L 348.55704 168.316391 
L 349.59492 136.789604 
L 350.19756 125.422341 
L 350.83368 117.52377 
L 351.33588 113.629169 
L 351.6372 112.646874 
L 351.8046 112.617528 
L 351.972 112.949129 
L 352.23984 114.171183 
L 352.60812 117.061031 
L 353.1438 123.225977 
L 353.91384 135.091833 
L 354.9852 151.091775 
L 355.55436 156.528249 
L 356.02308 159.162652 
L 356.3244 159.979515 
L 356.45832 159.985761 
L 356.59224 159.668935 
L 356.79312 158.447943 
L 357.06096 155.140337 
L 357.42924 147.114348 
L 357.96492 129.348061 
L 359.47152 75.966026 
L 360.10764 62.378644 
L 360.77724 52.426288 
L 361.14552 49.378572 
L 361.37988 48.778652 
L 361.48032 48.873434 
L 361.64772 49.533215 
L 361.91556 51.893632 
L 362.28384 57.626874 
L 362.81952 70.276632 
L 363.79044 99.606692 
L 364.92876 133.813974 
L 365.39748 141.074452 
L 365.79924 144.119594 
L 366.10056 145.069891 
L 366.30144 145.206546 
L 366.46884 145.050086 
L 366.7032 144.426396 
L 367.038 142.815728 
L 367.50672 139.314494 
L 368.10936 132.911023 
L 369.0468 120.143539 
L 370.51992 100.176551 
L 370.92168 97.208917 
L 371.15604 96.697019 
L 371.25648 96.757589 
L 371.42388 97.294222 
L 371.65824 99.007659 
L 372.02652 103.543547 
L 372.5622 113.291943 
L 373.33224 131.789191 
L 374.63796 169.122983 
L 376.21152 212.986524 
L 376.7472 221.899272 
L 377.082 224.649719 
L 377.28288 225.033941 
L 377.38332 224.895603 
L 377.55072 224.197776 
L 377.81856 221.960433 
L 378.2538 216.077708 
L 378.99036 202.258274 
L 380.29608 173.859588 
L 381.30048 150.544504 
L 381.63528 147.226784 
L 381.86964 146.483992 
L 382.00356 146.512167 
L 382.17096 146.881803 
L 382.47228 148.187032 
L 382.90752 151.133282 
L 383.37624 155.894134 
L 383.91192 163.756252 
L 384.88284 182.210923 
L 385.92072 200.605501 
L 386.35596 204.944861 
L 386.6238 205.925687 
L 386.75772 205.917989 
L 386.92512 205.464642 
L 387.19296 203.848877 
L 387.76212 198.498287 
L 388.56564 191.579129 
L 388.83348 189.809706 
L 388.83348 189.809706 
" style="fill:none;stroke:#1f77b4;stroke-linecap:square;stroke-width:1.5;"/>
   </g>
   <g id="patch_3">
    <path d="M 54 252 
L 54 34.56 
" style="fill:none;stroke:#000000;stroke-linecap:square;stroke-linejoin:miter;stroke-width:0.8;"/>
   </g>
   <g id="patch_4">
    <path d="M 388.8 252 
L 388.8 34.56 
" style="fill:none;stroke:#000000;stroke-linecap:square;stroke-linejoin:miter;stroke-width:0.8;"/>
   </g>
   <g id="patch_5">
    <path d="M 54 252 
L 388.8 252 
" style="fill:none;stroke:#000000;stroke-linecap:square;stroke-linejoin:miter;stroke-width:0.8;"/>
   </g>
   <g id="patch_6">
    <path d="M 54 34.56 
L 388.8 34.56 
" style="fill:none;stroke:#000000;stroke-linecap:square;stroke-linejoin:miter;stroke-width:0.8;"/>
   </g>
   <g id="text_14">
    <!-- Voie rectiligne avec défaut de dressage -->
    <defs>
     <path d="M 28.609375 0 
L 0.78125 72.90625 
L 11.078125 72.90625 
L 34.1875 11.53125 
L 57.328125 72.90625 
L 67.578125 72.90625 
L 39.796875 0 
z
" id="DejaVuSans-86"/>
     <path d="M 45.40625 27.984375 
Q 45.40625 37.75 41.375 43.109375 
Q 37.359375 48.484375 30.078125 48.484375 
Q 22.859375 48.484375 18.828125 43.109375 
Q 14.796875 37.75 14.796875 27.984375 
Q 14.796875 18.265625 18.828125 12.890625 
Q 22.859375 7.515625 30.078125 7.515625 
Q 37.359375 7.515625 41.375 12.890625 
Q 45.40625 18.265625 45.40625 27.984375 
z
M 54.390625 6.78125 
Q 54.390625 -7.171875 48.1875 -13.984375 
Q 42 -20.796875 29.203125 -20.796875 
Q 24.46875 -20.796875 20.265625 -20.09375 
Q 16.0625 -19.390625 12.109375 -17.921875 
L 12.109375 -9.1875 
Q 16.0625 -11.328125 19.921875 -12.34375 
Q 23.78125 -13.375 27.78125 -13.375 
Q 36.625 -13.375 41.015625 -8.765625 
Q 45.40625 -4.15625 45.40625 5.171875 
L 45.40625 9.625 
Q 42.625 4.78125 38.28125 2.390625 
Q 33.9375 0 27.875 0 
Q 17.828125 0 11.671875 7.65625 
Q 5.515625 15.328125 5.515625 27.984375 
Q 5.515625 40.671875 11.671875 48.328125 
Q 17.828125 56 27.875 56 
Q 33.9375 56 38.28125 53.609375 
Q 42.625 51.21875 45.40625 46.390625 
L 45.40625 54.6875 
L 54.390625 54.6875 
z
" id="DejaVuSans-103"/>
     <path d="M 37.109375 75.984375 
L 37.109375 68.5 
L 28.515625 68.5 
Q 23.6875 68.5 21.796875 66.546875 
Q 19.921875 64.59375 19.921875 59.515625 
L 19.921875 54.6875 
L 34.71875 54.6875 
L 34.71875 47.703125 
L 19.921875 47.703125 
L 19.921875 0 
L 10.890625 0 
L 10.890625 47.703125 
L 2.296875 47.703125 
L 2.296875 54.6875 
L 10.890625 54.6875 
L 10.890625 58.5 
Q 10.890625 67.625 15.140625 71.796875 
Q 19.390625 75.984375 28.609375 75.984375 
z
" id="DejaVuSans-102"/>
    </defs>
    <g transform="translate(102.79125 28.56)scale(0.12 -0.12)">
     <use xlink:href="#DejaVuSans-86"/>
     <use x="60.658203" xlink:href="#DejaVuSans-111"/>
     <use x="121.839844" xlink:href="#DejaVuSans-105"/>
     <use x="149.623047" xlink:href="#DejaVuSans-101"/>
     <use x="211.146484" xlink:href="#DejaVuSans-32"/>
     <use x="242.933594" xlink:href="#DejaVuSans-114"/>
     <use x="281.796875" xlink:href="#DejaVuSans-101"/>
     <use x="343.320312" xlink:href="#DejaVuSans-99"/>
     <use x="398.300781" xlink:href="#DejaVuSans-116"/>
     <use x="437.509766" xlink:href="#DejaVuSans-105"/>
     <use x="465.292969" xlink:href="#DejaVuSans-108"/>
     <use x="493.076172" xlink:href="#DejaVuSans-105"/>
     <use x="520.859375" xlink:href="#DejaVuSans-103"/>
     <use x="584.335938" xlink:href="#DejaVuSans-110"/>
     <use x="647.714844" xlink:href="#DejaVuSans-101"/>
     <use x="709.238281" xlink:href="#DejaVuSans-32"/>
     <use x="741.025391" xlink:href="#DejaVuSans-97"/>
     <use x="802.304688" xlink:href="#DejaVuSans-118"/>
     <use x="861.484375" xlink:href="#DejaVuSans-101"/>
     <use x="923.007812" xlink:href="#DejaVuSans-99"/>
     <use x="977.988281" xlink:href="#DejaVuSans-32"/>
     <use x="1009.775391" xlink:href="#DejaVuSans-100"/>
     <use x="1073.251953" xlink:href="#DejaVuSans-233"/>
     <use x="1134.775391" xlink:href="#DejaVuSans-102"/>
     <use x="1169.980469" xlink:href="#DejaVuSans-97"/>
     <use x="1231.259766" xlink:href="#DejaVuSans-117"/>
     <use x="1294.638672" xlink:href="#DejaVuSans-116"/>
     <use x="1333.847656" xlink:href="#DejaVuSans-32"/>
     <use x="1365.634766" xlink:href="#DejaVuSans-100"/>
     <use x="1429.111328" xlink:href="#DejaVuSans-101"/>
     <use x="1490.634766" xlink:href="#DejaVuSans-32"/>
     <use x="1522.421875" xlink:href="#DejaVuSans-100"/>
     <use x="1585.898438" xlink:href="#DejaVuSans-114"/>
     <use x="1624.761719" xlink:href="#DejaVuSans-101"/>
     <use x="1686.285156" xlink:href="#DejaVuSans-115"/>
     <use x="1738.384766" xlink:href="#DejaVuSans-115"/>
     <use x="1790.484375" xlink:href="#DejaVuSans-97"/>
     <use x="1851.763672" xlink:href="#DejaVuSans-103"/>
     <use x="1915.240234" xlink:href="#DejaVuSans-101"/>
    </g>
   </g>
  </g>
 </g>
 <defs>
  <clipPath id="p51695c5bb9">
   <rect height="217.44" width="334.8" x="54" y="34.56"/>
  </clipPath>
 </defs>
</svg>
